<?xml version="1.0" encoding="UTF-8"?>
<svg id="jobmoaLog" data-name="jobmoaLog"
     width="250" height="117" viewBox="206 128 365 117"
     xmlns="http://www.w3.org/2000/svg" version="1.1"
     xmlns:xlink="http://www.w3.org/1999/xlink">
  <defs>
    <style>
      .cls-1 {
        fill: #000;
      }

      .cls-1, .cls-2, .cls-3, .cls-4, .cls-5 {
        stroke-width: 0px;
      }

      .cls-6 {
        clip-path: url(#clippath-2);
      }

      .cls-7 {
        clip-path: url(#clippath-6);
      }

      .cls-2 {
        fill: none;
      }

      .cls-8 {
        clip-path: url(#clippath-7);
      }

      .cls-9 {
        clip-path: url(#clippath-1);
      }

      .cls-10 {
        clip-path: url(#clippath-4);
      }

      .cls-3 {
        fill: #231815;
      }

      .cls-11 {
        clip-path: url(#clippath);
      }

      .cls-12 {
        clip-path: url(#clippath-3);
      }

      .cls-13 {
        clip-path: url(#clippath-8);
      }

      .cls-4 {
        fill: #00469b;
      }

      .cls-5 {
        fill: #b91d26;
      }

      .cls-14 {
        clip-path: url(#clippath-5);
      }
    </style>
    <clipPath id="clippath">

      <rect class="cls-2" x="182.4" y="84.3" width="411.6" height="204"/>
    </clipPath>
    <clipPath id="clippath-1">
      <rect class="cls-2" x="182.4" y="84.3" width="411.6" height="204"/>
    </clipPath>
    <clipPath id="clippath-2">
      <rect class="cls-2" x="182.4" y="84.3" width="411.6" height="204"/>
    </clipPath>
    <clipPath id="clippath-3">
      <rect class="cls-2" x="182.4" y="84.3" width="411.6" height="204"/>
    </clipPath>
    <clipPath id="clippath-4">
      <rect class="cls-2" x="182.4" y="84.3" width="411.6" height="204"/>
    </clipPath>
    <clipPath id="clippath-5">
      <rect class="cls-2" x="182.4" y="84.3" width="411.6" height="204"/>
    </clipPath>
    <clipPath id="clippath-6">
      <rect class="cls-2" x="182.4" y="84.3" width="411.6" height="204"/>
    </clipPath>
    <clipPath id="clippath-7">
      <rect class="cls-2" x="182.4" y="84.3" width="411.6" height="204"/>
    </clipPath>
    <clipPath id="clippath-8">
      <rect class="cls-2" x="182.4" y="84.3" width="411.6" height="204"/>
    </clipPath>
  </defs>
  <g class="cls-11">
    <path class="cls-4" d="M418.3,227.1v4.9c2-1.6,4-2.9,6.1-3.7,2-.8,4.1-1.2,6.2-1.2s2.7.2,3.9.7c1.2.4,2.3,1,3.1,1.7.8.7,1.6,1.6,2.3,2.8,2.2-1.8,4.3-3.1,6.4-4,2-.8,4.1-1.2,6.2-1.2s3.5.4,5,1.1c1.5.7,2.7,1.7,3.6,2.9.9,1.2,1.5,2.6,1.8,4,.2.9.3,2.2.3,3.9v15.4c0,1.3,0,2.1.2,2.5.2.4.5.7.9.9.3.1,1.1.2,2.5.2h1.5v7.2h-20.1v-7.2c1.5,0,2.4,0,2.8-.2.4-.2.7-.4.9-.8.2-.4.3-1.1.3-2.4v-13.5c0-1.6,0-2.6-.3-3.1-.2-.5-.6-.9-1.1-1.3-.6-.4-1.2-.5-2-.5s-1.9.2-2.9.7c-1,.4-2.6,1.4-4.6,2.9v14.5c0,1.5.1,2.4.3,2.7.2.4.5.7,1,.9.3.1,1.2.2,2.7.2v7.2h-18.9v-7.2c1.5,0,2.5-.1,2.8-.3.3-.1.6-.4.8-.8.2-.4.3-1.3.3-2.7v-12.7c0-2-.2-3.2-.5-3.9-.5-1-1.4-1.5-2.7-1.5s-1.3,0-2,.3c-.7.2-1.4.4-2.1.8-.4.2-1.3.8-2.8,1.9l-.8.6v14.5c0,1.4,0,2.3.2,2.6.1.4.4.6.8.9.4.2,1.1.3,2,.3h.9v7.2h-20.1v-7.2h1.4c1.4,0,2.3,0,2.7-.2.4-.2.6-.4.8-.9.2-.4.3-1.3.3-2.7v-16.7h-5.1v-7.2c4.2-.4,8.1-1.5,11.7-3.2h3.3Z"/>
  </g>
  <path class="cls-4" d="M492.4,227.1c4,0,7.4.8,10.3,2.5,2.9,1.7,5.2,3.9,6.7,6.8,1.6,2.9,2.4,6.2,2.4,10.1,0,5.8-1.7,10.5-5.3,14.1-3.5,3.6-8.2,5.4-14,5.4s-10.7-1.8-14.3-5.5c-3.4-3.5-5.1-8.2-5.1-14.1s.8-7.2,2.3-10c1.5-2.8,3.8-5,6.8-6.7,3-1.7,6.3-2.5,10.1-2.5h0ZM492.6,235.3c-1.3,0-2.6.4-3.7,1.3-1.2.8-2.1,2.1-2.7,3.7-.6,1.6-1,3.7-1,6.2s.3,4.8.9,6.5c.6,1.7,1.5,3,2.6,3.8,1.1.8,2.3,1.2,3.6,1.2,2,0,3.8-.9,5.2-2.8,1.5-1.8,2.2-4.7,2.2-8.6s-.7-6.6-2-8.5c-1.4-1.9-3.1-2.8-5.2-2.8h0Z"/>
  <g class="cls-9">
    <path class="cls-4" d="M535.9,209.4h11.8l15.6,43.1c.8,2.2,1.5,3.6,2.2,4.1.6.5,1.9.8,3.6.8v7.7h-24.4v-7.7h1.5c1.3,0,2.3-.2,2.8-.6.5-.4.8-.8.8-1.4s-.2-1.4-.7-2.9l-1.7-5h-15.7l-1.9,5.5c-.4,1.2-.6,1.9-.6,2.3s.1.8.4,1.1c.3.3.7.6,1.4.7.4.1,1.6.2,3.4.2v7.7h-20v-7.7c1.3,0,2.3-.1,2.9-.4.6-.2,1.1-.6,1.5-1.1.4-.5.8-1.4,1.3-2.6l15.8-43.9h0ZM534.5,239.3h10.2l-5-15.1-5.1,15.1h0Z"/>
  </g>
  <path class="cls-5" d="M376.7,181.3c0-4.6,1.2-8,3.5-10.3,2-1.8,4.4-2.8,7.2-2.8s5.7,1.1,7.7,3.4c2,2.2,3,5.4,3,9.3s-.4,5.7-1.3,7.6c-.9,1.8-2.2,3.3-3.9,4.3-1.7,1-3.5,1.5-5.5,1.5-3.2,0-5.8-1.1-7.8-3.3-2-2.2-3-5.5-3-9.7h0ZM380.7,181.2c0,3.2.6,5.6,1.9,7.2,1.3,1.6,2.9,2.4,4.8,2.4s3.5-.8,4.8-2.4c1.3-1.6,1.9-4,1.9-7.3s-.6-5.4-1.9-7c-1.3-1.6-2.9-2.4-4.8-2.4s-3.6.8-4.8,2.4c-1.3,1.6-1.9,4-1.9,7.2h0Z"/>
  <g class="cls-6">
    <path class="cls-5" d="M403.8,193.7v-24.9h3.5v3.5c1.7-2.7,4.1-4.1,7.3-4.1s2.7.3,3.8.8c1.2.5,2,1.2,2.6,2.1.6.9,1,1.9,1.2,3.1.1.8.2,2.2.2,4.1v15.3h-3.9v-15.2c0-1.7-.1-3-.5-3.9-.3-.9-.8-1.5-1.6-2.1-.7-.5-1.7-.8-2.7-.8-1.6,0-3.1.6-4.3,1.7-1.2,1.2-1.8,3.3-1.8,6.5v13.6h-3.9Z"/>
  </g>
  <polygon class="cls-5" points="426.6 194.3 435.8 158.8 438.9 158.8 429.7 194.3 426.6 194.3 426.6 194.3"/>
  <g class="cls-12">
    <path class="cls-5" d="M441.4,181.3c0-4.6,1.2-8,3.5-10.3,2-1.8,4.4-2.8,7.2-2.8s5.7,1.1,7.7,3.4c2,2.2,3,5.4,3,9.3s-.4,5.7-1.3,7.6c-.9,1.8-2.2,3.3-3.9,4.3-1.7,1-3.5,1.5-5.5,1.5-3.2,0-5.8-1.1-7.8-3.3-2-2.2-3-5.5-3-9.7h0ZM445.4,181.2c0,3.2.6,5.6,1.9,7.2,1.3,1.6,2.9,2.4,4.8,2.4s3.5-.8,4.8-2.4c1.3-1.6,1.9-4,1.9-7.3s-.7-5.4-1.9-7c-1.3-1.6-2.9-2.4-4.8-2.4s-3.6.8-4.8,2.4c-1.3,1.6-1.9,4-1.9,7.2h0Z"/>
  </g>
  <path class="cls-5" d="M469.5,193.7v-21.6h-3.3v-3.3h3.3v-2.6c0-1.7.1-2.9.4-3.7.4-1.1,1-2,2-2.6.9-.7,2.3-1,4-1s2.3.1,3.6.4l-.6,3.7c-.8-.2-1.6-.2-2.3-.2-1.2,0-2,.3-2.5.8-.5.6-.7,1.6-.7,3v2.3h4.5v3.3h-4.5v21.6h-3.9Z"/>
  <g class="cls-10">
    <path class="cls-5" d="M482,193.7v-21.6h-3.3v-3.3h3.3v-2.6c0-1.7.1-2.9.4-3.7.4-1.1,1-2,2-2.6.9-.7,2.2-1,4-1s2.3.1,3.6.4l-.6,3.7c-.8-.2-1.6-.2-2.3-.2-1.2,0-2,.3-2.5.8-.5.6-.7,1.6-.7,3v2.3h4.5v3.3h-4.5v21.6h-3.8Z"/>
  </g>
  <polygon class="cls-5" points="494.4 193.7 494.4 159.3 498.2 159.3 498.2 193.7 494.4 193.7 494.4 193.7"/>
  <g class="cls-14">
    <path class="cls-5" d="M505.4,164.1v-4.8h3.9v4.8h-3.9ZM505.4,193.7v-24.9h3.9v24.9h-3.9Z"/>
  </g>
  <path class="cls-5" d="M516.3,193.7v-24.9h3.5v3.5c1.7-2.7,4.1-4.1,7.3-4.1s2.7.3,3.8.8c1.1.5,2,1.2,2.6,2.1.6.9,1,1.9,1.2,3.1.1.8.2,2.2.2,4.1v15.3h-3.8v-15.2c0-1.7-.1-3-.5-3.9-.3-.9-.8-1.5-1.6-2.1-.8-.5-1.7-.8-2.7-.8-1.6,0-3.1.6-4.3,1.7-1.2,1.2-1.8,3.3-1.8,6.5v13.6h-3.9Z"/>
  <g class="cls-7">
    <path class="cls-5" d="M557.6,185.7l4,.6c-.6,2.5-1.8,4.5-3.5,5.9-1.7,1.4-3.9,2.1-6.6,2.1s-6-1.1-7.9-3.4c-2-2.2-2.9-5.4-2.9-9.4s1-7.4,3-9.8c2-2.3,4.6-3.5,7.7-3.5s5.6,1.1,7.5,3.4c1.9,2.3,2.9,5.5,2.9,9.6s0,.6,0,1.1h-17c.1,2.7.8,4.8,2.1,6.3,1.3,1.5,2.9,2.2,4.8,2.2s2.7-.4,3.7-1.2c1-.8,1.8-2.1,2.4-3.9h0ZM544.8,178.9h12.9c-.2-2.1-.7-3.7-1.5-4.7-1.3-1.6-2.9-2.5-4.9-2.5s-3.3.6-4.5,2c-1.2,1.3-1.9,3-2,5.2h0Z"/>
  </g>
  <path class="cls-3" d="M232,250.3c0-2.6-11.4-9.1-10.8-32.9.6-23.4,13.1-42.1,28.4-57,15.4-14.9,55.4-40,98.2-42.4,42.8-2.4,120,24.5,120,24.5,0,0-70.8-44.6-139.1-38.1-75.6,7.3-125.6,55.3-120.7,106.4,1.7,17.6,11.3,37,26.4,49.6,1.1-1.8-2.4-8.6-2.5-10.1h0Z"/>
  <g class="cls-8">
    <path class="cls-1" d="M327.5,226.9c4.3,0,8,.8,11.1,2.4,3.2,1.6,5.6,3.8,7.3,6.6,1.7,2.8,2.6,6,2.6,9.7,0,5.6-1.9,10.2-5.7,13.7-3.8,3.5-8.9,5.2-15.2,5.2s-11.6-1.8-15.4-5.3c-3.7-3.3-5.5-7.9-5.5-13.6s.8-7,2.5-9.7c1.7-2.7,4.1-4.9,7.3-6.5,3.2-1.6,6.9-2.5,11-2.5h0ZM327.7,234.7c-1.4,0-2.8.4-4,1.2-1.2.8-2.2,2-2.9,3.6-.7,1.6-1,3.6-1,6s.3,4.6,1,6.3c.7,1.6,1.6,2.9,2.8,3.7,1.2.8,2.5,1.2,3.9,1.2,2.2,0,4.1-.9,5.6-2.7,1.6-1.8,2.4-4.6,2.4-8.3s-.7-6.4-2.2-8.3c-1.5-1.8-3.3-2.8-5.6-2.8h0Z"/>
  </g>
  <path class="cls-1" d="M368.8,210.9v19.4c2.1-1.3,3.9-2.1,5.5-2.7,1.6-.5,3.2-.7,4.8-.7,4.2,0,7.8,1.5,10.5,4.5,3.2,3.4,4.8,8,4.8,13.8s-1.6,10.5-4.8,14c-3.2,3.5-7.2,5.3-11.8,5.3s-3.7-.3-5.4-.9c-1.7-.6-3.5-1.6-5.4-2.9l-2,3h-8.2v-42.8h-5.5v-6.9c4.9-.4,9.5-1.4,13.8-3.1h3.7ZM368.8,238.1v10.9c0,2.2.2,3.7.5,4.6.4.8,1,1.5,1.9,2.1.9.5,2,.8,3.2.8,2.1,0,3.7-.8,4.9-2.4,1.5-2,2.3-4.8,2.3-8.4s-.7-6-2-7.8c-1.1-1.5-2.5-2.2-4.2-2.2s-2,.2-3.1.6c-1.1.4-2.3,1-3.6,1.9h0Z"/>
  <g class="cls-13">
    <path class="cls-3" d="M278.8,237.8c0-2.4,2.2-29.8,1.8-38.1-.4-8.3,0-2.9,0-3.4-.2-1.3-.7-2.3-1.7-2.8-.5-.3-1.7-.4-3.4-.2l-2.6.3-.9-12,35.7-4.7-1.7,12.7-3,.4c-1.7.2-2.9.6-3.5,1.1-.8.7-1.4,1.6-1.8,2.8-.3.9-.5,2.9-.6,5.9l-1.9,39c-.5,6.8-1.9,12.5-4.3,17-2.4,4.5-5.7,8.2-10,11-4.2,2.8-9.3,4.6-15.3,5.3-4.3.6-23.6-1.3-38.6-18.8-2.8-3.3-.5-7.9-1-9.6,0,0,10.6,11.2,20.6,14.5,7.4,2.5,12.8,5.2,19.3,3.2,6.5-2,7.1-3.9,8.8-7.2,0,0,3.6-8.3,3.9-16.5h0Z"/>
  </g>
</svg>